<svg width="32" height="27" viewBox="0 0 32 27" fill="none" xmlns="http://www.w3.org/2000/svg">
<path d="M31.1937 10.856H29.925V10.8H15.75V16.2H24.6511C23.3525 19.3435 19.8631 21.6 15.75 21.6C10.5312 21.6 6.3 17.9732 6.3 13.5C6.3 9.02678 10.5312 5.4 15.75 5.4C18.159 5.4 20.3506 6.17895 22.0193 7.45132L26.4742 3.63285C23.6612 1.38577 19.8986 0 15.75 0C7.05206 0 0 6.04463 0 13.5C0 20.9554 7.05206 27 15.75 27C24.4479 27 31.5 20.9554 31.5 13.5C31.5 12.5948 31.3913 11.7113 31.1937 10.856Z" fill="#FFC107"/>
<path d="M1.81592 7.21642L6.99058 10.4692C8.39075 7.4979 11.7817 5.4 15.7499 5.4C18.1589 5.4 20.3505 6.17895 22.0192 7.45132L26.4741 3.63285C23.6612 1.38577 19.8985 0 15.7499 0C9.70037 0 4.45404 2.92747 1.81592 7.21642Z" fill="#FF3D00"/>
<path d="M15.75 27C19.8182 27 23.5147 25.6655 26.3095 23.4954L21.4349 19.9597C19.8536 20.9864 17.888 21.6 15.75 21.6C11.6534 21.6 8.17499 19.361 6.86459 16.2365L1.72852 19.6283C4.33514 24.0003 9.62872 27 15.75 27Z" fill="#4CAF50"/>
<path d="M31.1937 10.856H29.925V10.8H15.75V16.2H24.6511C24.0274 17.71 22.8942 19.012 21.4326 19.9604L21.435 19.9591L26.3096 23.4947C25.9647 23.7634 31.5 20.25 31.5 13.5C31.5 12.5948 31.3913 11.7112 31.1937 10.856Z" fill="#1976D2"/>
</svg>
